HIERARCHY
ROOT Hips
{
	OFFSET 0.000000 0.000000 0.000000
	CHANNELS 6 Xposition Yposition Zposition Xrotation Yrotation Zrotation
	JOINT LeftUpLeg_virtual
	{
		OFFSET 0.000000 0.000000 0.000000
		CHANNELS 3 Xrotation Yrotation Zrotation
		JOINT LeftUpLeg
		{
			OFFSET 15.427100 -6.655098 0.678600
			CHANNELS 3 Xrotation Yrotation Zrotation
			JOINT LeftLeg
			{
				OFFSET 4.081073 -39.591068 13.024000
				CHANNELS 3 Xrotation Yrotation Zrotation
				JOINT LeftFoot
				{
					OFFSET -4.081074 -37.707932 -15.979700
					CHANNELS 3 Xrotation Yrotation Zrotation
					JOINT LeftToeBase
					{
						OFFSET 5.346399 -15.068900 20.645000
						CHANNELS 3 Xrotation Yrotation Zrotation
						JOINT LeftToe_End
						{
							OFFSET 2.754700 0.931300 11.300900
							CHANNELS 3 Xrotation Yrotation Zrotation
							End Site
							{
								OFFSET 0 0 0
							}
						}
					}
				}
			}
		}
	}
	JOINT RightUpLeg_virtual
	{
		OFFSET 0.000000 0.000000 0.000000
		CHANNELS 3 Xrotation Yrotation Zrotation
		JOINT RightUpLeg
		{
			OFFSET -15.569500 -6.655098 0.678600
			CHANNELS 3 Xrotation Yrotation Zrotation
			JOINT RightLeg
			{
				OFFSET -4.081825 -39.591045 13.023800
				CHANNELS 3 Xrotation Yrotation Zrotation
				JOINT RightFoot
				{
					OFFSET 4.081824 -37.707954 -15.979600
					CHANNELS 3 Xrotation Yrotation Zrotation
					JOINT RightToeBase
					{
						OFFSET -5.346400 -15.068900 20.645000
						CHANNELS 3 Xrotation Yrotation Zrotation
						JOINT RightToe_End
						{
							OFFSET -2.754700 0.931300 11.300900
							CHANNELS 3 Xrotation Yrotation Zrotation
							End Site
							{
								OFFSET 0 0 0
							}
						}
					}
				}
			}
		}
	}
	JOINT Spine_virtual
	{
		OFFSET 0.000000 0.000000 0.000000
		CHANNELS 3 Xrotation Yrotation Zrotation
		JOINT Spine
		{
			OFFSET -0.279200 12.230698 -2.892100
			CHANNELS 3 Xrotation Yrotation Zrotation
			JOINT Spine1
			{
				OFFSET -0.232667 10.192268 -1.242267
				CHANNELS 3 Xrotation Yrotation Zrotation
				JOINT Spine1_split
				{
					OFFSET -0.232667 10.192268 -1.242267
					CHANNELS 3 Xrotation Yrotation Zrotation
					JOINT Spine2
					{
						OFFSET -0.232667 10.192268 -1.242267
						CHANNELS 3 Xrotation Yrotation Zrotation
						JOINT Neck_virtual
						{
							OFFSET 0.000000 0.000000 0.000000
							CHANNELS 3 Xrotation Yrotation Zrotation
							JOINT Neck
							{
								OFFSET -0.418800 17.814194 8.416900
								CHANNELS 3 Xrotation Yrotation Zrotation
								JOINT Head
								{
									OFFSET 0.000000 7.031097 3.806800
									CHANNELS 3 Xrotation Yrotation Zrotation
									JOINT HeadTop_End
									{
										OFFSET 0.000000 24.646606 12.978600
										CHANNELS 3 Xrotation Yrotation Zrotation
										End Site
										{
											OFFSET 0 0 0
										}
									}
								}
							}
						}
						JOINT LeftShoulder_virtual
						{
							OFFSET 0.000000 0.000000 0.000000
							CHANNELS 3 Xrotation Yrotation Zrotation
							JOINT LeftShoulder
							{
								OFFSET 8.476499 7.247704 -3.868750
								CHANNELS 3 Xrotation Yrotation Zrotation
								JOINT LeftShoulder_split
								{
									OFFSET 8.476499 7.247704 -3.868750
									CHANNELS 3 Xrotation Yrotation Zrotation
									JOINT LeftArm
									{
										OFFSET 9.308998 -2.777710 0.208600
										CHANNELS 3 Xrotation Yrotation Zrotation
										JOINT LeftForeArm
										{
											OFFSET 29.972298 0.000000 0.000000
											CHANNELS 3 Xrotation Yrotation Zrotation
											JOINT LeftHand
											{
												OFFSET 26.026505 0.000000 0.000000
												CHANNELS 3 Xrotation Yrotation Zrotation
												End Site
												{
													OFFSET 0 0 0
												}
											}
										}
									}
								}
							}
						}
						JOINT RightShoulder_virtual
						{
							OFFSET 0.000000 0.000000 0.000000
							CHANNELS 3 Xrotation Yrotation Zrotation
							JOINT RightShoulder
							{
								OFFSET -7.570500 7.247704 -3.868750
								CHANNELS 3 Xrotation Yrotation Zrotation
								JOINT RightShoulder_split
								{
									OFFSET -7.570500 7.247704 -3.868750
									CHANNELS 3 Xrotation Yrotation Zrotation
									JOINT RightArm
									{
										OFFSET -9.308998 -2.777710 0.208500
										CHANNELS 3 Xrotation Yrotation Zrotation
										JOINT RightForeArm
										{
											OFFSET -29.972300 0.000000 0.000000
											CHANNELS 3 Xrotation Yrotation Zrotation
											JOINT RightHand
											{
												OFFSET -26.026505 0.000000 0.000000
												CHANNELS 3 Xrotation Yrotation Zrotation
												End Site
												{
													OFFSET 0 0 0
												}
											}
										}
									}
								}
							}
						}
					}
				}
			}
		}
	}
}
MOTION
Frames: 8
Frame Time: 0.03333333
6.744955 25.319401 -29.013397 0.000000 0.000000 0.000000 38.971024 28.057003 -4.132217 -62.185792 -45.615073 9.600126 108.591422 -10.955087 -7.612651 17.602526 16.492270 -35.339361 -72.970558 -1.759305 -20.958324 0.000000 0.000000 0.000000 40.701931 20.389711 -2.230231 -71.557037 13.971137 -37.575886 121.148814 11.642807 -6.041388 20.449914 -18.361770 48.961695 -40.995226 14.635881 -8.274214 0.000000 0.000000 0.000000 46.606376 24.417407 -5.219225 27.071648 5.737099 0.260382 11.259221 1.883048 -1.435366 0.056876 -0.594355 0.146468 0.000000 0.000000 0.000000 13.363339 4.227752 -0.265321 2.800171 13.476879 15.361456 -41.853166 -47.476720 -35.717986 0.000000 0.000000 0.000000 10.039232 2.063601 -2.551988 3.209322 -39.334253 11.672476 3.663540 -0.111968 -2.743178 -55.035854 -34.446410 -66.291507 -22.095163 -61.727937 -13.349604 0.000000 0.000000 0.000000 11.537828 2.504646 0.282079 -1.110985 8.025358 -4.432756 0.480609 0.962198 -0.169198 -29.031084 28.532132 53.246871 -81.214433 62.184856 70.112773 0.000000 0.000000 0.000000 
6.363647 24.978634 -29.616829 0.000000 0.000000 0.000000 37.162977 27.060164 -3.587733 -60.833592 -46.122693 10.585215 109.592434 -11.225416 -7.766041 17.606382 16.552772 -35.777757 -73.722808 -1.642609 -20.889664 0.000000 0.000000 0.000000 38.960584 19.697149 -1.875956 -72.119496 15.003344 -35.920761 121.984460 11.567235 -5.880676 20.805560 -18.134726 49.356351 -40.237642 14.631969 -9.268089 0.000000 0.000000 0.000000 44.537229 23.403157 -4.524690 26.684593 5.286429 -0.686750 12.108391 1.679354 -1.577972 0.086241 -0.604335 0.164862 0.000000 0.000000 0.000000 14.181130 4.061554 -0.464874 3.154060 13.578585 15.057719 -36.598005 -46.787769 -31.715399 0.000000 0.000000 0.000000 10.928885 1.865953 -2.780558 3.049792 -36.973945 10.799134 3.772634 -0.942599 -2.368353 -56.676326 -35.642143 -65.197974 -20.807468 -60.755721 -12.888286 0.000000 0.000000 0.000000 12.372974 2.314061 0.140666 -0.887822 7.840795 -3.953801 1.324889 1.880925 -0.258576 -32.035585 29.001591 55.545602 -79.953470 61.670994 68.799512 0.000000 0.000000 0.000000 
5.940592 24.822906 -30.158554 0.000000 0.000000 0.000000 35.324506 25.983689 -3.071648 -58.848521 -46.416504 11.867884 110.488637 -11.392081 -8.009996 17.620459 16.791996 -36.015120 -74.141826 -1.592045 -20.863749 0.000000 0.000000 0.000000 37.187310 18.937548 -1.525962 -72.584618 15.865368 -33.921930 122.536380 11.440619 -5.681562 21.316553 -17.955789 49.702429 -39.395732 14.619762 -10.337870 0.000000 0.000000 0.000000 42.326979 22.224681 -3.798526 26.409326 4.581201 -1.691997 12.693755 1.549593 -1.617225 0.098356 -0.649388 0.178700 0.000000 0.000000 0.000000 14.840806 3.979604 -0.578065 3.135366 13.735126 14.363913 -31.404383 -45.319627 -27.961049 0.000000 0.000000 0.000000 11.633016 1.761539 -2.858423 2.756979 -34.307248 9.642688 3.973743 -1.357022 -1.917772 -56.768243 -36.369466 -63.697798 -19.324678 -61.364305 -12.504805 0.000000 0.000000 0.000000 12.991325 2.140940 0.059398 -0.610706 7.617054 -3.560690 1.873483 2.602119 -0.065441 -35.299422 30.202782 59.026966 -77.530836 61.075586 66.705963 0.000000 0.000000 0.000000 
5.493181 24.840000 -30.587067 0.000000 0.000000 0.000000 33.541239 24.879729 -2.601533 -56.347773 -46.412464 13.353513 111.144301 -11.363978 -8.370229 17.337940 17.400692 -35.896206 -73.763632 -1.600052 -21.005176 0.000000 0.000000 0.000000 35.451264 18.113638 -1.195170 -72.928573 16.541709 -31.741655 122.750029 11.268562 -5.383841 22.100848 -17.839664 49.986586 -38.455980 14.544703 -11.354997 0.000000 0.000000 0.000000 40.114524 20.988155 -3.098156 26.256002 3.692904 -2.635628 13.004078 1.516329 -1.510802 0.118175 -0.719617 0.209080 0.000000 0.000000 0.000000 15.344978 3.983938 -0.576375 2.677395 13.904853 13.432676 -26.406847 -43.290098 -24.668982 0.000000 0.000000 0.000000 12.182374 1.762977 -2.735878 2.439890 -31.530308 8.460449 4.304616 -1.472373 -1.425613 -55.628431 -36.484039 -62.193913 -17.688675 -63.376082 -12.147970 0.000000 0.000000 0.000000 13.420986 2.031626 0.081542 -0.316310 7.260378 -3.368137 2.009426 3.087117 0.342042 -38.423359 31.773330 63.075745 -74.369074 60.436635 64.204407 0.000000 0.000000 0.000000 
5.093287 24.991508 -30.963142 0.000000 0.000000 0.000000 31.907041 23.813825 -2.208363 -53.557402 -46.053729 14.940132 111.401574 -11.179638 -8.819757 16.717089 18.220105 -35.560536 -72.918977 -1.645855 -21.223238 0.000000 0.000000 0.000000 33.846842 17.337385 -0.937691 -73.147385 17.060824 -29.587901 122.675402 11.065957 -4.989561 23.209019 -17.708037 50.309063 -37.613343 14.368923 -12.194201 0.000000 0.000000 0.000000 38.114949 19.767297 -2.509245 26.220751 2.736976 -3.398599 13.043407 1.576248 -1.298689 0.085009 -0.779917 0.261393 0.000000 0.000000 0.000000 15.664301 4.079564 -0.500694 1.739519 14.030506 12.479428 -21.563636 -41.090900 -21.845955 0.000000 0.000000 0.000000 12.609096 1.869829 -2.465348 2.153110 -28.894299 7.372221 4.725099 -1.377475 -0.769466 -53.919101 -35.768311 -61.091664 -15.579414 -65.945504 -11.381320 0.000000 0.000000 0.000000 13.680617 2.028449 0.200569 -0.034213 6.796535 -3.431844 1.785681 3.320905 1.073945 -40.933211 33.512221 66.890495 -70.225389 59.675725 60.919461 0.000000 0.000000 0.000000 
4.770650 25.228397 -31.259232 0.000000 0.000000 0.000000 30.456022 22.823801 -1.887977 -50.874022 -45.513621 16.376746 111.373536 -10.972298 -9.150983 16.115988 18.855490 -35.346096 -72.309539 -1.721077 -21.319676 0.000000 0.000000 0.000000 32.453914 16.659079 -0.767696 -73.186652 17.447553 -27.633059 122.415595 10.822682 -4.511712 24.475271 -17.641540 50.673051 -36.905175 14.106490 -12.820871 0.000000 0.000000 0.000000 36.384407 18.612305 -2.070136 26.325672 1.819411 -3.896359 12.797679 1.719265 -1.045330 0.066836 -0.818311 0.315518 0.000000 0.000000 0.000000 15.708989 4.253665 -0.406608 0.348559 14.111487 11.730088 -16.753862 -39.121896 -19.281817 0.000000 0.000000 0.000000 12.869562 2.046961 -2.149066 1.930898 -26.634384 6.486037 5.283376 -1.100374 -0.330534 -51.942564 -34.322104 -60.575937 -12.852724 -68.122831 -9.929016 0.000000 0.000000 0.000000 13.735347 2.130516 0.349807 0.191685 6.172884 -3.737420 1.237330 3.613902 1.859878 -42.580502 35.423079 69.998285 -64.511444 58.523602 56.151743 0.000000 0.000000 0.000000 
4.534830 25.522877 -31.466530 0.000000 0.000000 0.000000 29.222677 21.928169 -1.628996 -48.536120 -44.954359 17.526293 111.266445 -10.802839 -9.244172 15.816512 19.139817 -35.326343 -72.110371 -1.803137 -21.268722 0.000000 0.000000 0.000000 31.326748 16.050707 -0.669846 -73.002175 17.680288 -25.979256 122.051041 10.478229 -3.953204 25.561549 -17.824794 51.000968 -36.192148 13.782819 -13.290078 0.000000 0.000000 0.000000 34.970845 17.703671 -1.803278 26.619701 1.014473 -4.120922 12.262546 1.907006 -0.855754 0.031886 -0.852797 0.350498 0.000000 0.000000 0.000000 15.386750 4.473279 -0.362967 -1.401917 14.121095 11.390956 -11.998819 -37.619558 -16.838448 0.000000 0.000000 0.000000 12.896333 2.238809 -1.892622 1.772370 -24.888110 5.831543 5.433227 -0.593651 -0.413862 -49.914059 -32.284006 -60.682351 -9.703534 -69.376253 -7.867902 0.000000 0.000000 0.000000 13.514678 2.304690 0.453993 0.348367 5.339290 -4.171355 0.677677 4.208925 2.549968 -43.212059 37.425902 72.213575 -57.830276 56.880139 50.384554 0.000000 0.000000 0.000000 
4.403253 25.834797 -31.625343 0.000000 0.000000 0.000000 28.204810 21.150335 -1.445715 -46.558476 -44.354733 18.455357 111.116345 -10.613965 -9.230441 15.694492 19.303149 -35.266012 -71.909727 -1.858489 -21.232195 0.000000 0.000000 0.000000 30.417301 15.481652 -0.621318 -72.610518 17.771894 -24.668902 121.697442 10.034752 -3.355536 26.166817 -18.331483 51.178993 -35.174535 13.438753 -13.692958 0.000000 0.000000 0.000000 33.829473 17.048408 -1.673893 27.087031 0.363447 -4.116780 11.423505 2.094437 -0.781895 -0.005762 -0.897950 0.353333 0.000000 0.000000 0.000000 14.632627 4.695623 -0.399639 -3.344441 14.049307 11.534939 -7.486591 -36.908484 -14.369140 0.000000 0.000000 0.000000 12.591461 2.403979 -1.756453 1.641129 -23.671691 5.329657 5.378524 0.024731 -0.953314 -47.843074 -29.810794 -61.161544 -6.673751 -69.989427 -5.703025 0.000000 0.000000 0.000000 12.927809 2.480780 0.480273 0.415092 4.276924 -4.651382 0.402189 5.055985 3.183386 -43.015022 39.519703 73.823341 -51.380774 55.129162 44.792080 0.000000 0.000000 0.000000 
